<mxfile host="app.diagrams.net" agent="Mozilla/5.0 (Windows NT 10.0; Win64; x64) AppleWebKit/537.36 (KHTML, like Gecko) Chrome/131.0.0.0 Safari/537.36 Edg/131.0.0.0" version="25.0.3">
  <diagram name="Flowchart" id="0">
    <mxGraphModel dx="149902" dy="105775" grid="1" gridSize="10" guides="1" tooltips="1" connect="1" arrows="1" fold="1" page="1" pageScale="1" pageWidth="827" pageHeight="1169" math="0" shadow="0">
      <root>
        <mxCell id="0" />
        <mxCell id="1" parent="0" />
        <mxCell id="arrow1" parent="1" edge="1" />
        <mxCell id="arrow2" parent="1" edge="1" />
        <mxCell id="arrow4" parent="1" edge="1" />
        <mxCell id="arrow5" parent="1" edge="1" />
        <mxCell id="arrow6" parent="1" edge="1" />
        <mxCell id="f-hTg2dws4xhJUbghv1f-4" value="" style="edgeStyle=orthogonalEdgeStyle;rounded=0;orthogonalLoop=1;jettySize=auto;html=1;" edge="1" parent="1" source="f-hTg2dws4xhJUbghv1f-1" target="f-hTg2dws4xhJUbghv1f-3">
          <mxGeometry relative="1" as="geometry" />
        </mxCell>
        <mxCell id="f-hTg2dws4xhJUbghv1f-1" value="Start" style="strokeWidth=2;html=1;shape=mxgraph.flowchart.start_1;whiteSpace=wrap;" vertex="1" parent="1">
          <mxGeometry x="-1420" y="-1080" width="100" height="60" as="geometry" />
        </mxCell>
        <mxCell id="f-hTg2dws4xhJUbghv1f-2" value="End" style="strokeWidth=2;html=1;shape=mxgraph.flowchart.start_1;whiteSpace=wrap;" vertex="1" parent="1">
          <mxGeometry x="-1420" y="-580" width="100" height="60" as="geometry" />
        </mxCell>
        <mxCell id="f-hTg2dws4xhJUbghv1f-6" value="" style="edgeStyle=orthogonalEdgeStyle;rounded=0;orthogonalLoop=1;jettySize=auto;html=1;" edge="1" parent="1" source="f-hTg2dws4xhJUbghv1f-3" target="f-hTg2dws4xhJUbghv1f-5">
          <mxGeometry relative="1" as="geometry" />
        </mxCell>
        <mxCell id="f-hTg2dws4xhJUbghv1f-3" value="Input a" style="shape=parallelogram;html=1;strokeWidth=2;perimeter=parallelogramPerimeter;whiteSpace=wrap;rounded=1;arcSize=12;size=0.23;" vertex="1" parent="1">
          <mxGeometry x="-1440" y="-990" width="140" height="30" as="geometry" />
        </mxCell>
        <mxCell id="f-hTg2dws4xhJUbghv1f-13" value="" style="edgeStyle=orthogonalEdgeStyle;rounded=0;orthogonalLoop=1;jettySize=auto;html=1;" edge="1" parent="1" source="f-hTg2dws4xhJUbghv1f-5" target="f-hTg2dws4xhJUbghv1f-12">
          <mxGeometry relative="1" as="geometry" />
        </mxCell>
        <mxCell id="f-hTg2dws4xhJUbghv1f-15" value="" style="edgeStyle=orthogonalEdgeStyle;rounded=0;orthogonalLoop=1;jettySize=auto;html=1;" edge="1" parent="1" source="f-hTg2dws4xhJUbghv1f-5" target="f-hTg2dws4xhJUbghv1f-14">
          <mxGeometry relative="1" as="geometry" />
        </mxCell>
        <mxCell id="f-hTg2dws4xhJUbghv1f-5" value="If a &amp;lt;=1" style="rhombus;whiteSpace=wrap;html=1;strokeWidth=2;rounded=1;arcSize=12;" vertex="1" parent="1">
          <mxGeometry x="-1420" y="-930" width="100" height="60" as="geometry" />
        </mxCell>
        <mxCell id="f-hTg2dws4xhJUbghv1f-7" value="false" style="text;html=1;align=center;verticalAlign=middle;whiteSpace=wrap;rounded=0;" vertex="1" parent="1">
          <mxGeometry x="-1440" y="-870" width="60" height="30" as="geometry" />
        </mxCell>
        <mxCell id="f-hTg2dws4xhJUbghv1f-8" value="true" style="text;html=1;align=center;verticalAlign=middle;whiteSpace=wrap;rounded=0;" vertex="1" parent="1">
          <mxGeometry x="-1330" y="-940" width="60" height="30" as="geometry" />
        </mxCell>
        <mxCell id="f-hTg2dws4xhJUbghv1f-18" value="" style="edgeStyle=orthogonalEdgeStyle;rounded=0;orthogonalLoop=1;jettySize=auto;html=1;" edge="1" parent="1" source="f-hTg2dws4xhJUbghv1f-12" target="f-hTg2dws4xhJUbghv1f-17">
          <mxGeometry relative="1" as="geometry" />
        </mxCell>
        <mxCell id="f-hTg2dws4xhJUbghv1f-12" value="For b=2,b &amp;lt;=sqrt(a),b++" style="rounded=0;whiteSpace=wrap;html=1;" vertex="1" parent="1">
          <mxGeometry x="-1460" y="-830" width="180" height="60" as="geometry" />
        </mxCell>
        <mxCell id="f-hTg2dws4xhJUbghv1f-14" value="Print(Số a không phải sô nguyên tố)" style="whiteSpace=wrap;html=1;strokeWidth=2;rounded=1;arcSize=12;" vertex="1" parent="1">
          <mxGeometry x="-1130" y="-745" width="200" height="60" as="geometry" />
        </mxCell>
        <mxCell id="f-hTg2dws4xhJUbghv1f-16" style="edgeStyle=orthogonalEdgeStyle;rounded=0;orthogonalLoop=1;jettySize=auto;html=1;entryX=1.028;entryY=0.633;entryDx=0;entryDy=0;entryPerimeter=0;" edge="1" parent="1" source="f-hTg2dws4xhJUbghv1f-14" target="f-hTg2dws4xhJUbghv1f-2">
          <mxGeometry relative="1" as="geometry">
            <Array as="points">
              <mxPoint x="-1030" y="-542" />
            </Array>
          </mxGeometry>
        </mxCell>
        <mxCell id="f-hTg2dws4xhJUbghv1f-21" style="edgeStyle=orthogonalEdgeStyle;rounded=0;orthogonalLoop=1;jettySize=auto;html=1;entryX=0;entryY=0.5;entryDx=0;entryDy=0;" edge="1" parent="1" source="f-hTg2dws4xhJUbghv1f-17" target="f-hTg2dws4xhJUbghv1f-14">
          <mxGeometry relative="1" as="geometry" />
        </mxCell>
        <mxCell id="f-hTg2dws4xhJUbghv1f-23" value="" style="edgeStyle=orthogonalEdgeStyle;rounded=0;orthogonalLoop=1;jettySize=auto;html=1;" edge="1" parent="1" source="f-hTg2dws4xhJUbghv1f-17" target="f-hTg2dws4xhJUbghv1f-22">
          <mxGeometry relative="1" as="geometry" />
        </mxCell>
        <mxCell id="f-hTg2dws4xhJUbghv1f-17" value="if a % b == 0" style="rhombus;whiteSpace=wrap;html=1;rounded=0;" vertex="1" parent="1">
          <mxGeometry x="-1420" y="-740" width="100" height="50" as="geometry" />
        </mxCell>
        <mxCell id="f-hTg2dws4xhJUbghv1f-19" value="false" style="text;html=1;align=center;verticalAlign=middle;whiteSpace=wrap;rounded=0;" vertex="1" parent="1">
          <mxGeometry x="-1330" y="-745" width="60" height="30" as="geometry" />
        </mxCell>
        <mxCell id="f-hTg2dws4xhJUbghv1f-20" value="true" style="text;html=1;align=center;verticalAlign=middle;whiteSpace=wrap;rounded=0;" vertex="1" parent="1">
          <mxGeometry x="-1460" y="-745" width="60" height="30" as="geometry" />
        </mxCell>
        <mxCell id="f-hTg2dws4xhJUbghv1f-22" value="Print(Số a là số nguyên tố)" style="whiteSpace=wrap;html=1;rounded=0;" vertex="1" parent="1">
          <mxGeometry x="-1670" y="-745" width="180" height="60" as="geometry" />
        </mxCell>
        <mxCell id="f-hTg2dws4xhJUbghv1f-24" style="edgeStyle=orthogonalEdgeStyle;rounded=0;orthogonalLoop=1;jettySize=auto;html=1;entryX=0.028;entryY=0.66;entryDx=0;entryDy=0;entryPerimeter=0;" edge="1" parent="1" source="f-hTg2dws4xhJUbghv1f-22" target="f-hTg2dws4xhJUbghv1f-2">
          <mxGeometry relative="1" as="geometry">
            <Array as="points">
              <mxPoint x="-1590" y="-540" />
            </Array>
          </mxGeometry>
        </mxCell>
      </root>
    </mxGraphModel>
  </diagram>
</mxfile>
